<?xml version="1.0" standalone="no"?>
<!DOCTYPE svg PUBLIC "-//W3C//DTD SVG 20010904//EN"
 "http://www.w3.org/TR/2001/REC-SVG-20010904/DTD/svg10.dtd">
<svg version="1.0" xmlns="http://www.w3.org/2000/svg"
 width="700.000000pt" height="700.000000pt" viewBox="0 0 700.000000 700.000000"
 preserveAspectRatio="xMidYMid meet">
<metadata>
Created by potrace 1.14, written by Peter Selinger 2001-2017
</metadata>
<g transform="translate(0.000000,700.000000) scale(0.100000,-0.100000)"
fill="#000000" stroke="none">
<path d="M0 3500 l0 -3500 834 0 c658 0 835 3 839 13 4 9 6 9 6 0 1 -10 30
-13 111 -13 102 0 110 1 110 19 0 11 4 22 9 25 16 10 41 -5 41 -25 0 -19 54
-19 2525 -19 l2525 0 0 860 c0 799 -1 860 -17 860 -9 0 -30 -4 -47 -9 -33 -10
-70 -20 -181 -46 -113 -27 -122 -28 -145 -12 -23 16 -70 10 -137 -18 -40 -17
-100 -19 -137 -6 -17 7 -26 6 -30 -2 -5 -9 -7 -9 -12 1 -11 23 -43 12 -103
-33 -32 -25 -65 -45 -71 -45 -7 0 -41 25 -76 56 -50 43 -64 62 -64 83 0 20 -7
31 -25 39 -14 6 -37 33 -52 60 -16 28 -46 61 -73 80 -55 38 -76 57 -114 106
-23 30 -35 36 -65 36 -24 0 -46 8 -66 26 -16 14 -42 36 -56 48 -35 28 -72 130
-64 173 5 27 1 38 -20 59 -14 14 -37 43 -52 65 -14 21 -34 41 -44 44 -22 7
-79 -3 -79 -14 0 -11 -71 -37 -89 -33 -38 9 -201 148 -201 173 0 10 -4 20 -9
23 -5 3 -12 22 -15 42 -6 28 -11 34 -24 29 -75 -32 -73 -32 -97 -1 -12 15 -25
49 -29 73 -11 79 -28 124 -52 133 -12 5 -35 25 -51 44 -15 20 -31 36 -34 36
-4 0 -24 -16 -45 -35 -51 -45 -70 -45 -83 1 -17 61 -56 78 -111 49 -26 -13
-30 -21 -30 -55 0 -39 -17 -90 -30 -90 -4 0 -15 -25 -26 -56 -10 -30 -23 -59
-29 -64 -15 -13 -82 7 -106 31 -17 17 -32 19 -160 16 l-142 -2 -24 -38 c-22
-35 -28 -38 -56 -33 -18 3 -66 10 -107 17 -59 8 -80 16 -97 36 -21 24 -27 25
-80 19 -32 -4 -86 -9 -119 -12 l-62 -6 9 -30 c7 -25 3 -38 -31 -86 -21 -31
-48 -63 -59 -70 -12 -7 -21 -17 -21 -23 0 -11 -54 -69 -65 -69 -3 0 -16 -9
-27 -20 -16 -14 -21 -30 -20 -54 1 -19 -2 -37 -8 -41 -5 -3 -10 -14 -10 -23
-1 -36 -70 -64 -117 -48 -17 5 -68 60 -89 94 -1 2 -36 -34 -140 -145 -18 -18
-40 -33 -49 -33 -21 0 -77 30 -88 48 -9 13 -43 17 -49 5 -5 -12 -84 -53 -102
-53 -8 0 -23 -11 -32 -25 -9 -14 -25 -25 -36 -25 -11 0 -33 -7 -48 -17 -27
-16 -29 -15 -70 15 -40 29 -45 30 -114 25 -52 -4 -77 -11 -94 -26 l-22 -21
-17 24 c-10 14 -16 35 -15 47 2 12 -2 41 -8 65 -7 24 -11 43 -9 43 2 0 -4 11
-14 25 -18 26 -23 60 -9 60 15 0 32 49 31 88 -2 60 -13 86 -39 92 -17 4 -26
15 -30 35 -11 54 -28 75 -61 75 -19 0 -31 6 -35 18 -3 9 -12 30 -21 45 -14 26
-13 29 3 42 13 9 18 25 18 54 -1 23 1 41 5 41 3 0 24 16 45 35 22 19 45 35 52
35 18 0 25 27 9 40 -8 6 -19 27 -25 46 -6 19 -16 34 -21 34 -18 0 -10 78 10
92 10 7 28 36 41 65 18 42 30 56 64 73 23 11 52 20 64 20 15 0 22 6 22 18 0
38 51 57 79 30 10 -11 14 -9 22 5 9 16 20 17 99 11 l89 -7 3 54 3 54 50 17
c72 26 278 22 297 -5 11 -14 24 -18 58 -15 l45 3 5 45 c5 42 8 47 55 72 28 15
61 27 75 28 19 0 34 14 63 55 20 31 37 62 37 69 0 19 42 55 70 60 14 2 25 5
25 6 0 0 26 3 58 6 32 3 69 9 83 14 51 20 107 12 146 -20 40 -33 66 -31 102 9
11 11 29 21 40 21 28 0 37 8 60 50 10 19 31 47 47 61 16 15 36 43 44 62 19 47
50 67 102 67 23 0 45 5 48 10 4 7 24 8 50 5 l43 -7 7 42 c7 42 52 100 77 100
7 1 23 9 36 20 17 14 21 25 16 43 -3 16 0 34 10 49 9 14 15 42 14 64 -2 63 38
118 80 109 17 -4 22 -1 22 14 0 11 14 31 32 46 26 22 40 26 79 24 38 -2 54 2
71 18 48 44 129 74 226 82 115 10 140 6 148 -25 3 -13 10 -24 15 -24 5 0 9
-13 9 -28 0 -16 7 -37 16 -48 15 -18 15 -18 10 7 -4 17 0 31 12 42 9 8 30 27
45 41 15 14 31 26 36 26 10 0 53 49 68 79 7 13 13 34 13 46 0 36 61 88 75 64
4 -6 13 -8 21 -5 7 3 16 0 20 -6 4 -5 30 -20 58 -33 76 -34 154 -95 161 -126
3 -15 15 -35 25 -44 10 -9 22 -30 25 -46 13 -57 89 -69 118 -18 24 44 22 59
-10 59 -54 0 -73 11 -73 39 0 44 24 97 54 123 29 25 29 25 14 64 -14 34 -14
42 -2 59 17 23 18 67 2 120 -14 47 -12 71 10 107 28 49 91 85 159 93 60 7 62
6 84 -24 30 -41 41 -43 75 -12 19 17 50 31 91 39 57 12 64 11 100 -9 21 -13
48 -31 60 -42 15 -14 30 -18 47 -13 14 3 34 2 43 -3 129 -68 151 -75 178 -61
25 13 28 12 70 -34 25 -26 45 -55 45 -64 0 -10 14 -23 32 -31 41 -18 95 -73
137 -140 26 -39 46 -58 78 -72 40 -17 43 -21 43 -56 0 -37 -3 -40 -81 -91 -45
-30 -93 -59 -108 -65 -14 -6 -27 -12 -29 -13 -6 -3 39 -83 54 -95 18 -15 18
-45 -1 -53 -19 -7 -20 -42 -1 -49 8 -3 22 -21 30 -39 9 -19 29 -42 46 -51 23
-14 30 -27 35 -65 4 -26 21 -75 37 -109 24 -48 29 -68 24 -95 -4 -18 -10 -56
-14 -85 -6 -42 -15 -60 -55 -104 -26 -28 -47 -59 -47 -68 0 -9 -8 -29 -18 -46
-26 -42 -35 -92 -17 -92 8 0 19 15 25 32 7 20 23 38 47 51 77 40 73 34 41 67
-15 17 -28 33 -28 37 0 4 17 20 38 37 21 17 49 47 62 66 14 20 36 39 50 42 14
4 40 13 58 22 l32 15 0 1519 0 1519 -3500 0 -3500 0 0 -3500z m5270 3119 c10
-12 22 -18 32 -14 9 4 19 2 22 -4 9 -13 -45 -41 -79 -41 -24 0 -26 3 -20 29 4
21 2 30 -9 34 -9 4 -16 12 -16 18 0 17 52 1 70 -22z m346 -221 c3 -4 -2 -11
-10 -14 -11 -4 -13 -14 -9 -35 7 -36 -10 -38 -33 -4 -9 14 -23 25 -30 25 -20
0 -17 17 3 29 21 12 72 11 79 -1z m279 -68 c11 -5 14 -9 8 -9 -7 -1 -13 -12
-13 -26 0 -28 -21 -33 -40 -10 -7 8 -21 15 -31 15 -26 0 -24 15 4 28 27 13 45
13 72 2z m-970 -31 c4 -12 16 -19 33 -19 l27 0 -29 -15 c-32 -17 -86 -20 -86
-5 0 6 5 10 11 10 7 0 9 9 5 24 -3 12 -3 26 0 29 10 10 33 -4 39 -24z m1225
-9 c0 -5 -4 -10 -10 -10 -5 0 -10 -11 -10 -25 0 -16 -6 -25 -15 -25 -8 0 -15
5 -15 10 0 6 -16 10 -35 10 -58 0 -38 35 25 43 19 2 41 5 48 5 6 1 12 -2 12
-8z m636 -100 c32 -13 24 -22 -33 -40 -46 -14 -84 -7 -65 12 7 7 12 26 12 43
0 44 11 51 37 21 12 -15 34 -31 49 -36z m-480 13 c9 -10 28 -16 41 -15 12 2
23 0 23 -5 0 -13 -85 -44 -103 -37 -20 7 -22 20 -4 27 10 4 10 7 0 18 -7 7
-13 17 -13 21 0 15 38 8 56 -9z m-333 -109 c4 -8 16 -14 26 -14 10 0 21 -3 24
-7 10 -9 -49 -33 -80 -33 -17 0 -23 -4 -20 -14 3 -8 0 -22 -7 -31 -12 -17 -13
-17 -19 -1 -4 10 -11 15 -16 12 -4 -3 -16 3 -25 13 -17 18 -17 20 3 30 11 6
29 11 40 11 17 0 21 6 21 35 0 34 1 35 23 24 12 -7 26 -18 30 -25z m573 -5 c3
-6 -3 -13 -15 -16 -15 -4 -21 -13 -21 -32 0 -15 -3 -30 -6 -33 -7 -8 -46 12
-68 35 -16 16 -15 18 12 34 33 21 88 27 98 12z m-4378 -3992 c7 -8 7 -26 0
-57 -17 -74 -25 -87 -57 -98 l-31 -11 0 57 c0 89 52 153 88 109z m-20 -247 c2
-41 -2 -103 -8 -139 -6 -37 -13 -84 -15 -106 -6 -80 -25 -262 -34 -330 -6 -38
-13 -122 -16 -185 -8 -155 -17 -251 -66 -670 -6 -52 -14 -99 -17 -105 -11 -16
-9 -69 2 -77 6 -4 7 -10 3 -14 -9 -10 -101 -9 -116 0 -14 9 -14 56 0 76 8 11
9 7 4 -16 -4 -23 -2 -33 9 -37 21 -8 25 12 37 155 5 68 14 157 19 198 5 41 12
129 16 195 4 66 11 125 16 131 5 8 3 14 -7 18 -22 8 -18 29 10 54 14 12 25 32
26 44 1 61 19 250 29 308 14 85 31 239 35 318 2 55 0 62 -16 62 -24 0 -24 15
-1 32 10 7 22 31 26 53 4 22 10 54 13 70 5 31 20 47 38 42 6 -2 11 -37 13 -77z
m-258 -1664 c0 -11 -19 -15 -25 -6 -3 5 1 10 9 10 9 0 16 -2 16 -4z m70 -10
c0 -18 -30 -30 -43 -17 -5 5 -6 14 -3 20 10 16 46 13 46 -3z m270 -6 c0 -5
-13 -10 -30 -10 -16 0 -30 5 -30 10 0 6 14 10 30 10 17 0 30 -4 30 -10z m-427
-15 c-4 -13 -45 -13 -50 0 -2 6 9 11 24 10 16 0 27 -4 26 -10z m327 -14 c0 -5
12 -12 28 -14 l27 -4 -26 -2 c-15 0 -32 6 -39 14 -9 10 -9 15 -1 15 6 0 11 -4
11 -9z m-267 -8 c-7 -2 -21 -2 -30 0 -10 3 -4 5 12 5 17 0 24 -2 18 -5z m-166
-25 c-3 -8 -6 -5 -6 6 -1 11 2 17 5 13 3 -3 4 -12 1 -19z m170 -2 c23 -1 44 2
46 8 2 6 12 4 24 -5 25 -17 17 -39 -12 -37 -11 0 -27 -2 -36 -6 -10 -4 -23 -1
-32 8 -9 9 -22 16 -29 16 -7 1 -26 7 -43 15 l-30 14 35 -5 c19 -3 54 -7 77 -8z
m353 -16 c0 -5 -10 -10 -22 -9 -22 0 -22 1 -3 9 11 5 21 9 23 9 1 1 2 -3 2 -9z
m-533 -22 c-3 -8 -6 -5 -6 6 -1 11 2 17 5 13 3 -3 4 -12 1 -19z m153 -28 c0
-5 -12 -10 -26 -10 -14 0 -23 4 -19 10 3 6 15 10 26 10 10 0 19 -4 19 -10z"/>
</g>
</svg>
